REM DIRINDEX 1\2,1\3
REM DIRNAME folder01,folder02,folder03
TITLE ""
FILE "Track33.mp3" MP3
  TRACK 01 AUDIO
    TITLE "0:"
    INDEX 01 00:00:00
  TRACK 02 AUDIO
    TITLE "3:cjc140_110"
    INDEX 01 00:00:05
  TRACK 03 AUDIO
    TITLE "2:cjc140_111"
    INDEX 01 00:01:73
  TRACK 04 AUDIO
    TITLE "2:cjc140_112"
    INDEX 01 00:15:66
  TRACK 05 AUDIO
    TITLE "2:cjc140_113"
    INDEX 01 00:20:65
  TRACK 06 AUDIO
    TITLE "0:"
    INDEX 01 00:22:13
